# xmcd
#
# Track frame offsets:
#	182
#	20512
#	31195
#	42520
#	55925
#	69960
#	81530
#	94507
#	108987
#	128700
#	150390
#	165122
#	184225
#	204305
#	218235
#	228500
#
# Disc length: 3216
#
# Revision: 1
# Processed by: cddbd v1.5.1PL0 Copyright (c) Steve Scherf et al.
# Submitted via: CDex 1.51
# Normalized: r0:DSETVAR1,TDELIM( - )
#
DISCID=c90c8e10
DTITLE=Various Artist - 16 All-time Jazz Sessions vol 9
DYEAR=1988
DGENRE=Jazz
TTITLE0=Gene Krupa - Gene's Soloflight
TTITLE1=Ella Fitzgerald - Slumming on Park Avenue
TTITLE2=Dizzy Gillepsie - Our Delight
TTITLE3=Charlie Parker - Scrapple from the Apple
TTITLE4=Thelonious Monk - Monk's Dream
TTITLE5=Lena Horne - Night and Day
TTITLE6=George Shearing - I'll close my Eyes
TTITLE7=Benny Goodman - When Budda smiles
TTITLE8=Miles Davis - You don't know what Love is
TTITLE9=Louis Armstrong - St. James Infirmary
TTITLE10=Harry James - Moanin' low
TTITLE11=Duke Ellington - Metronome all-out
TTITLE12=Lionel Hampton - Sweethearts on Parade
TTITLE13=Count Basie - Oh Lady be good
TTITLE14=Modern Jazz Quartet - Rose of the Rio Grande
TTITLE15=Django Reinhart - Nagasaki
EXTD=YEAR: 1988
EXTT0=
EXTT1=
EXTT2=
EXTT3=
EXTT4=
EXTT5=
EXTT6=
EXTT7=
EXTT8=
EXTT9=
EXTT10=
EXTT11=
EXTT12=
EXTT13=
EXTT14=
EXTT15=
PLAYORDER=
